<?xml version="1.0" ?><svg data-name="Layer 1" id="Layer_1" viewBox="0 0 512 512" xmlns="http://www.w3.org/2000/svg" xmlns:xlink="http://www.w3.org/1999/xlink"><defs><style>.cls-1{fill:url(#linear-gradient);}.cls-2,.cls-4{opacity:0.2;}.cls-2{fill:url(#linear-gradient-2);}.cls-3{fill:#fff;}.cls-4{fill:#0a3867;}</style><linearGradient gradientUnits="userSpaceOnUse" id="linear-gradient" x1="791.43" x2="127.32" y1="29.11" y2="311.08"><stop offset="0" stop-color="#509dd6"/><stop offset="0.99" stop-color="#276eb6"/></linearGradient><linearGradient gradientUnits="userSpaceOnUse" id="linear-gradient-2" x1="365.65" x2="570.64" y1="256.45" y2="256.45"><stop offset="0.31" stop-color="#fff" stop-opacity="0.2"/><stop offset="1" stop-color="#fff"/></linearGradient></defs><path class="cls-1" d="M512,52.87V460a52.82,52.82,0,0,1-52.87,52.86H52.87A52.86,52.86,0,0,1,0,460V52.87A52.85,52.85,0,0,1,52.87,0H459.13A52.87,52.87,0,0,1,512,52.87Z"/><path class="cls-2" d="M459.13,0H437.49a52.87,52.87,0,0,1,52.87,52.87V460a52.82,52.82,0,0,1-52.87,52.86h21.64A52.82,52.82,0,0,0,512,460V52.87A52.87,52.87,0,0,0,459.13,0Z"/><path class="cls-3" d="M384.31,286.46v96.12H328.59V292.91c0-22.52-8-37.9-28.22-37.9-15.4,0-24.55,10.36-28.59,20.38-1.46,3.58-1.84,8.56-1.84,13.58v93.61H214.21s.75-151.88,0-167.6h55.73v23.75c-.11.19-.27.37-.37.55h.37v-.55c7.41-11.4,20.61-27.69,50.22-27.69,36.66,0,64.15,24,64.15,75.42ZM127.69,382.58H183.4V215H127.69Zm0,0,57.37-224.47a28.69,28.69,0,1,1-28.69-28.69A28.68,28.68,0,0,1,185.06,158.11Z"/><path class="cls-4" d="M511.18,469.34a52.88,52.88,0,0,1-52.05,43.55H52.87A52.86,52.86,0,0,1,0,460V52.87A52.88,52.88,0,0,1,44.22.71C28.11,117.11,22.15,460.84,511.18,469.34Z"/></svg>